/vscmnt/brussel_pixiu_data/_data_brussel/112/vsc11236/PredSimResults/SUBJ10opt3D/trackIG/worker_10.mot
version=1
nRows=8
nColumns=50
inDegrees=yes
endheader
                time	         pelvis_tilt	         pelvis_list	     pelvis_rotation	           pelvis_tx	           pelvis_ty	           pelvis_tz	       hip_flexion_r	     hip_adduction_r	      hip_rotation_r	        knee_angle_r	       ankle_angle_r	         mtp_angle_r	       hip_flexion_l	     hip_adduction_l	      hip_rotation_l	        knee_angle_l	       ankle_angle_l	         mtp_angle_l	    lumbar_extension	      lumbar_bending	     lumbar_rotation	 ercspn_r/activation	 intobl_r/activation	 extobl_r/activation	    abd_r/activation	    add_r/activation	hamstrings_r/activation	bifemsh_r/activation	glut_max_r/activation	iliopsoas_r/activation	rect_fem_r/activation	  vasti_r/activation	gastroc_r/activation	 soleus_r/activation	tib_ant_r/activation	 ercspn_l/activation	 intobl_l/activation	 extobl_l/activation	    abd_l/activation	    add_l/activation	hamstrings_l/activation	bifemsh_l/activation	glut_max_l/activation	iliopsoas_l/activation	rect_fem_l/activation	  vasti_l/activation	gastroc_l/activation	 soleus_l/activation	tib_ant_l/activation	
          0.49149946	         -5.92066695	          1.87128193	         -8.21878905	          0.73724918	          0.81489176	          0.01060222	        -17.29902932	         -1.71389519	          2.12430731	         -6.29264628	          4.38753935	         31.90492737	         34.22296064	         -1.19021850	         -7.12433313	         -7.33829578	          4.70687379	          0.29859472	         -7.48692484	         -1.10807212	          7.44677077	          0.10021225	          0.00999999	          0.00999999	          0.04160117	          0.00999999	          0.02178063	          0.27142635	          0.01576419	          0.39856719	          0.00999999	          0.00999999	          0.31379797	          0.25234968	          0.02485100	          0.13439063	          0.15109786	          0.00999999	          0.00999999	          0.15284597	          0.16860313	          0.34695449	          0.02030557	          0.08777196	          0.00999999	          0.00999999	          0.02397289	          0.00999999	          0.35052978	
          0.50132945	         -5.92850105	          1.87182009	         -8.31958498	          0.75429572	          0.81341827	          0.01060961	        -17.25482553	         -1.83052313	          1.83708586	         -8.38610162	          3.40923434	         33.59396175	         34.10995124	         -0.95550646	         -6.69714498	         -9.00555579	          4.34940951	          0.29416172	         -7.29963932	         -1.51303995	          7.69872772	          0.14350223	          0.00999999	          0.00999999	          0.03574496	          0.07162521	          0.03680621	          0.23321758	          0.01354506	          0.40883833	          0.00999999	          0.00999999	          0.26962453	          0.23497815	          0.02135272	          0.11547242	          0.12982777	          0.00999999	          0.00999999	          0.24371887	          0.14486882	          0.29811360	          0.09209825	          0.07541628	          0.00999999	          0.00999999	          0.02059822	          0.01331040	          0.38026668	
          0.51115943	         -5.92393676	          1.88095439	         -8.38034649	          0.77160980	          0.81205841	          0.01056730	        -17.04349127	         -1.95317575	          1.50464851	        -10.81618776	          2.37344087	         35.02631512	         33.80823495	         -0.76143574	         -6.13891893	        -10.57598736	          3.88736690	          0.27748589	         -7.09290071	         -1.92917043	          7.91552790	          0.16535331	          0.00999999	          0.00999999	          0.03071313	          0.07530814	          0.03162503	          0.20038747	          0.01163832	          0.35128603	          0.00999999	          0.00999999	          0.23166940	          0.21453940	          0.01834689	          0.10465252	          0.11155187	          0.00999999	          0.05640706	          0.20941049	          0.12451009	          0.25614806	          0.14725680	          0.06479990	          0.00999999	          0.00999999	          0.01769860	          0.01143669	          0.50552640	
          0.52098942	         -5.91118980	          1.88339982	         -8.39402919	          0.78894998	          0.81097212	          0.01040441	        -16.58187579	         -2.06974202	          1.13087499	        -13.68341648	          1.27331925	         36.05964286	         33.41515695	         -0.56415474	         -5.66816397	        -11.95573064	          3.24254764	          0.26236987	         -6.89583967	         -2.32901848	          8.09364040	          0.18889483	          0.00999999	          0.00999999	          0.02638964	          0.06470699	          0.02717318	          0.17217886	          0.00999999	          0.30183539	          0.00999999	          0.00999999	          0.19905723	          0.18433862	          0.01576419	          0.12586144	          0.09584868	          0.00999999	          0.11342353	          0.22317387	          0.10698277	          0.22009002	          0.18065480	          0.05567800	          0.00999999	          0.00999999	          0.01520716	          0.00999999	          0.58187103	
          0.53081941	         -5.88996115	          1.87749510	         -8.36047880	          0.80612489	          0.81030022	          0.01013158	        -15.81876184	         -2.18186598	          0.71345398	        -17.04293243	          0.11051657	         36.49938308	         33.06043431	         -0.36698203	         -5.29570734	        -13.40750786	          2.67284838	          0.23988335	         -6.72890584	         -2.71308407	          8.22742800	          0.23317708	          0.00999999	          0.00999999	          0.02267476	          0.07714607	          0.02465153	          0.14794119	          0.00999999	          0.25934593	          0.00999999	          0.00999999	          0.17103588	          0.15838922	          0.01354506	          0.13661897	          0.08235603	          0.00999999	          0.15904073	          0.28180216	          0.09192277	          0.18910788	          0.20205825	          0.04784019	          0.00999999	          0.02026909	          0.01306644	          0.00999999	          0.60752330	
          0.54064940	         -5.86133835	          1.86555722	         -8.28303784	          0.82303677	          0.81015859	          0.00977388	        -14.72659872	         -2.29683176	          0.25114396	        -20.88386363	         -1.23951498	         36.31310067	         32.77186032	         -0.17726365	         -5.02247480	        -15.00090781	          2.36359131	          0.21567912	         -6.59576224	         -3.08411884	          8.31713215	          0.26146559	          0.00999999	          0.00999999	          0.01948283	          0.16869485	          0.02770208	          0.12711546	          0.00999999	          0.22283772	          0.00999999	          0.00999999	          0.14695911	          0.13609272	          0.01163832	          0.13816590	          0.07076275	          0.00999999	          0.18969246	          0.31860662	          0.08001825	          0.16248710	          0.20482157	          0.04110571	          0.00999999	          0.07577752	          0.01122708	          0.00999999	          0.61581038	
          0.55047939	         -5.82858553	          1.84152631	         -8.15999137	          0.83962533	          0.81065902	          0.00936351	        -13.29685303	         -2.41205529	         -0.26298695	        -25.13776961	         -2.94304974	         35.48727808	         32.46210563	          0.00268466	         -4.83519424	        -16.57057908	          2.35381521	          0.19174318	         -6.49701399	         -3.43626938	          8.36060970	          0.26771616	          0.00999999	          0.00999999	          0.01674022	          0.24100415	          0.02581857	          0.10922138	          0.00999999	          0.19146879	          0.00999999	          0.00999999	          0.12627163	          0.11693490	          0.00999999	          0.13036092	          0.06080145	          0.00999999	          0.20369511	          0.33616367	          0.07291999	          0.13961374	          0.19219385	          0.03531925	          0.00999999	          0.11614650	          0.00999999	          0.00999999	          0.58591944	
          0.56030938	         -5.79491751	          1.80298758	         -7.99233523	          0.85585538	          0.81182111	          0.00892497	        -11.55218488	         -2.53354582	         -0.81846804	        -29.67531281	         -5.12972511	         34.00413548	         32.05738157	          0.18049999	         -4.68175399	        -17.98089521	          2.66760124	          0.17633540	         -6.43256041	         -3.76749604	          8.35879080	          0.27111068	          0.00999999	          0.00999999	          0.01438370	          0.27737406	          0.02218409	          0.09384625	          0.00999999	          0.16451567	          0.00999999	          0.00999999	          0.10849633	          0.10047394	          0.00999999	          0.11200997	          0.05224241	          0.00999999	          0.21450002	          0.34469361	          0.07444582	          0.11996027	          0.16513866	          0.03034735	          0.00999999	          0.14191125	          0.00999999	          0.00999999	          0.50343938	
